<svg id="Layer_1" data-name="Layer 1" xmlns="http://www.w3.org/2000/svg" viewBox="0 0 339.05 339.05"><title>brightidealogo</title><path d="M46.06,60.07H66.44q7.15,0,11.39,3.47a10.91,10.91,0,0,1,4.24,8.82q0,8-9.29,10.76a11.71,11.71,0,0,1,7.55,3.94,11.44,11.44,0,0,1,2.81,7.68A10.85,10.85,0,0,1,79,103.66Q74.92,107,67.57,107H46.06Zm11.42,8.69V78.91H65a6,6,0,0,0,4-1.27,4.66,4.66,0,0,0,1.5-3.77,4.76,4.76,0,0,0-1.5-3.81,5.86,5.86,0,0,0-4-1.3Zm0,29.53H66.1A5.53,5.53,0,0,0,70,96.88,5,5,0,0,0,71.51,93,5.33,5.33,0,0,0,70,89.06a5.16,5.16,0,0,0-3.81-1.47H57.48Z"/><path d="M102.51,88.73V107H91.09V60.07H109.6q8.15,0,12.69,4.21a13.35,13.35,0,0,1,4.54,10.16,14.61,14.61,0,0,1-2.47,8q-2.47,3.88-8.08,5.48L127.77,107H114.41L103.85,88.73Zm0-20V80h7.08a5.23,5.23,0,0,0,5.61-5.58,5.7,5.7,0,0,0-1.54-4.11,5.39,5.39,0,0,0-4.08-1.6Z"/><path d="M135.72,107V60.07h11.42V107Z"/><path d="M161.41,100.59a23,23,0,0,1-7-17.2,23,23,0,0,1,7-17.2,23.58,23.58,0,0,1,17.07-6.78,24.1,24.1,0,0,1,13.9,4.14A21.6,21.6,0,0,1,200.86,75H187.23a9,9,0,0,0-8.55-5.14q-5.88,0-9.25,3.67T166,83.38q0,6.15,3.37,9.82a11.69,11.69,0,0,0,9.05,3.67,10.38,10.38,0,0,0,6.65-2,9.83,9.83,0,0,0,3.44-5.45H175.34V80.71h25.52V89.4q-1.27,6.41-7,12a21.13,21.13,0,0,1-6.78,4.34,22.25,22.25,0,0,1-8.59,1.67A23.57,23.57,0,0,1,161.41,100.59Z"/><path d="M237.74,60.07h11.43V107H237.74V87.52H219.63V107H208.21V60.07h11.42V78.84h18.11Z"/><path d="M256,68.75V60.07h37v8.69H280.16V107H268.74V68.75Z"/><path d="M52.77,189.93a4.12,4.12,0,0,1,.63-3.7,4.92,4.92,0,0,1,4.12-1.64c2.13,0,4.58-.11,7.22-.3V115H46.06v76.67h7.37A12,12,0,0,1,52.77,189.93Z"/><path d="M138.23,125.65Q126.44,115,108.09,115h-27v67.68l3.08-.35c7.89-.91,14.71-1.69,18.7-1.69,9.17,0,15,3.09,17.19,9.18.07.17.13.34.18.5a39.94,39.94,0,0,0,18-9.35q11.8-10.7,11.8-27.69T138.23,125.65Zm-13.32,45.27q-6.12,6.55-16.82,6.55h-8.3V129.2h8.3q10.7,0,16.82,6.55T131,153.34Q131,164.37,124.91,170.92Z"/><polygon points="161.82 191.67 208.24 191.67 208.24 177.48 180.5 177.48 180.5 159.67 204.96 159.67 204.96 145.48 180.5 145.48 180.5 128.99 208.24 128.99 208.24 114.79 161.82 114.79 161.82 191.67"/><path d="M266.45,114.79H243.73l-26.65,76.89H237l4.26-12.89h27.52L273,191.67h20Zm-20.53,49.8,9.06-27.3,9.07,27.3Z"/><path d="M91.89,195.67c8-1.32,16.66-2.64,23.06-1.9,3.42.29,4-1.46,3.27-3.22-2.23-6.15-8.48-7.91-15.33-7.91-8.63,0-32.43,4-45.38,4-2.08,0-3.27.88-2.83,2.78,1.64,5.71,8,9.08,17.7,9.08a49.66,49.66,0,0,0,6.4-.58C65.7,217.78,50.67,247.5,47,259.65a20.74,20.74,0,0,0-.89,5.86c0,3.66.89,6,3.12,8.05s3.87,1.9,5.06-.73c8.63-19.18,19.34-38.65,27.08-52.41C87.72,209.44,92,200.94,91.89,195.67Z"/><path d="M158.83,217.34c3.72,0,6-3.37,6-7.32,0-4.25-4-9.52-8.18-9.52-3.42,0-6.55,3.81-6.55,7.91A9.18,9.18,0,0,0,158.83,217.34Z"/><path d="M209.41,216.46c-.45-3.51-2.23-4.1-5.5-1-8.78,8.93-25,29.87-35.71,46.12,1.34-7.76,2.83-13.62,6.55-28.11a32.07,32.07,0,0,0,1-7.91,13.51,13.51,0,0,0-5.06-10.83c-2.38-1.9-4.46-1.17-5.36,1.46a222.32,222.32,0,0,0-8.23,33.8c-4.63,9.81-12.23,19.35-18.1,19.35-1.64,0-2.23-1.32-2.23-3.66a25.37,25.37,0,0,1,2.08-8.79c2.53-5.86,9.37-16.84,12.2-23.13,3.87-7.32,2.68-13.62-.15-16.54-1.94-2.2-3.72-1.9-6,1-5.47,7.56-14.89,24.35-18.66,34.62-4.53,9.59-10.23,17.2-15.11,17.2-2.08,0-3.27-2.34-3.27-6.15,0-8.64,8.48-20.2,16.52-29.28a9,9,0,0,0,2.38-5.71c0-3.51-2.23-7.32-4.31-9.37s-3.42-1.61-6,.15q-6.7,4.83-12.05,6.15c1.64-4.69,2.68-8.93,2.68-11.71,0-3.37-1.34-5.12-4.46-5.12-4.61,0-14.13,10.39-14.13,17.86a7.53,7.53,0,0,0,2.83,5.42,201.72,201.72,0,0,0-18.3,26.65A22.22,22.22,0,0,0,70,269.46a11.54,11.54,0,0,0,3.72,8.64c2.68,2.78,4.61,1.46,5.21-1.17,2.08-10.1,10.56-23.57,21.72-42.61A31.64,31.64,0,0,0,111.52,232c-7.44,8.93-15.32,20.2-15.32,29.57,0,7.91,4.91,14.2,14,14.2,5.55,0,11.22-2.71,15.48-6.91,1.79,3.9,5.64,6.33,11.89,6.33s13.25-3.13,18.38-8.26c.81,4.35,3.38,6.76,7.95,8.85,2.23,1,3.87-.15,4.91-1.76,10.71-16.69,20.83-28.4,34.37-44.36C208.22,223.64,209.86,219.68,209.41,216.46Z"/><path d="M229.34,217.34c3.72,0,6-3.37,6-7.32,0-4.25-4-9.52-8.18-9.52-3.42,0-6.55,3.81-6.55,7.91A9.18,9.18,0,0,0,229.34,217.34Z"/><path d="M292.28,250.28c-1.49-3.07-2.83-2.93-4.46,0-4.91,9.52-12.35,19.47-17.71,19.47-1.49,0-2.08-1.32-2.08-3.51,0-9.81,12.5-25.77,16.37-33.82,3.87-7.61,2.53-14.06,0-17-1.79-2.05-4.32-1.9-6.1,1L275.47,221c-1.34-3.81-4.61-6.44-10-6.44-7.59,0-19.79,6.88-31.69,23.72a44.56,44.56,0,0,0-6.16,11.7c-4.63,9.81-12.23,19.34-18.09,19.34-1.64,0-2.23-1.32-2.23-3.66a25.37,25.37,0,0,1,2.08-8.79c2.53-5.86,9.37-16.84,12.2-23.13,3.87-7.32,2.68-13.62-.15-16.54-1.94-2.2-3.72-1.9-6,1-5.51,7.61-15,24.6-18.75,34.84a32.6,32.6,0,0,0-1.79,9.66c0,7.32,4,12.44,13.09,12.44,6.41,0,13.6-3.29,18.76-8.64,1.84,5.15,6.09,8.5,12.49,8.5,6,0,12.65-4.54,17-8.64,1.19,5.42,5.51,9.22,12.94,9.22,9.08,0,18.6-7.76,22.47-15.81A12,12,0,0,0,292.28,250.28Zm-51,18.3c-1.49,0-2.08-1.76-2.08-4.39,0-4.69,2.53-12.44,7-19.33,7.59-12,17.85-21.23,20.83-21.23,1.49,0,1.79,1,1.79,2.78,0,3.81-2.68,11-8.48,20.94C253,259.65,246.15,268.58,241.24,268.58Z"/><path d="M339,339H0V0H339ZM14,325H325V14H14Z"/></svg>