<svg id="Layer_1" data-name="Layer 1" xmlns="http://www.w3.org/2000/svg" viewBox="0 0 647.15 337.86"><defs><style>.cls-1{fill:#fff;}</style></defs><title>brightidealogo</title><path class="cls-1" d="M454.87,80.59V26.48l-4.37-1.77A336.84,336.84,0,0,0,323.82,0h-.25A336.81,336.81,0,0,0,196.65,24.71l-4.37,1.77V80.59H0v177.9l9.18-3a1014.52,1014.52,0,0,1,183.09-41.94v50.32l131.3,74,131.3-74V213.54A1014.6,1014.6,0,0,1,638,255.48l9.18,3V80.59ZM206.28,36A322.77,322.77,0,0,1,323.57,14h.24A322.8,322.8,0,0,1,440.87,36V80.59H206.28ZM440.87,211.79v43.89l-117.3,66.11-117.3-66.11V211.79c24.24-2.87,48.68-4.86,73.09-6l.43,0q13.88-.61,27.72-.83l2.81,0q6.63-.09,13.25-.1h.3q6.58,0,13.19.1l2.86,0q13.76.23,27.57.84l.52,0C392.35,206.94,416.71,208.93,440.87,211.79Zm192.28,27.42a1027.63,1027.63,0,0,0-178.28-39.78v0l-2.26-.28q-48-6.18-96.44-7.75l-1.28,0-5.14-.14-4.09-.1-4.23-.08-5.44-.08-3.24,0q-4.43,0-8.86,0h-.36q-4.38,0-8.78,0l-3.42,0-5.23.08-4.42.09-3.86.09-5.38.15-.92,0q-48.55,1.54-96.8,7.74l-2.45.31v0A1027.58,1027.58,0,0,0,14,239.21V94.59H633.15Z"/><path class="cls-1" d="M33.08,108.15l27.86-.09c6.52,0,11.7,2.34,15.54,6.9s5.74,10.29,5.7,17.32c-.06,10.45-4.32,17.84-12.77,22.52,4.3.46,7.72,2.75,10.24,6.79a26.84,26.84,0,0,1,3.74,14.7c0,7.37-1.94,13.5-5.68,18.59a25.16,25.16,0,0,1-15.56,9.8q-14.56,3.1-29.07,6.56Zm15.58,18.39,0,21.56,10.19-.91a7.3,7.3,0,0,0,5.42-3.08c1.37-1.85,2.07-4.46,2.08-7.88s-.66-6-2-7.68a6.22,6.22,0,0,0-5.42-2.45Zm-.12,62.69q5.84-1.07,11.68-2.09a7.88,7.88,0,0,0,5.27-3.78,14.92,14.92,0,0,0,2.12-8.24c0-3.35-.64-5.93-2-7.77A5.22,5.22,0,0,0,60.47,165q-5.95.75-11.89,1.54Z"/><path class="cls-1" d="M109.86,161.46l-.26,34.06q-7.78,1.35-15.54,2.79L94.65,108,120,107.9c7.43,0,13.19,2.52,17.29,7.44a26.34,26.34,0,0,1,6,17.74,32.9,32.9,0,0,1-3.51,14.2A22.54,22.54,0,0,1,128.66,158Q136.35,174.46,144,190q-9.13,1.32-18.24,2.77-7.06-15.37-14.12-31.56Zm.29-37.31L110,145.23l9.67-.71a7.25,7.25,0,0,0,5.64-3.18,12.7,12.7,0,0,0,2.12-7.44,12,12,0,0,0-2-7.35,6.28,6.28,0,0,0-5.55-2.73Z"/><path class="cls-1" d="M154.92,188.53l.77-80.7,15.62,0-.76,78.7Q162.73,187.47,154.92,188.53Z"/><path class="cls-1" d="M190.19,173.85c-6.31-6.77-9.4-16-9.3-27.52s3.39-21.13,9.82-28.59,14.25-11.06,23.45-11.06a30.29,30.29,0,0,1,19,6.42,32.88,32.88,0,0,1,11.49,17.56q-9.34.19-18.67.44c-2.4-5.29-6.28-7.92-11.64-7.82a15.6,15.6,0,0,0-12.72,6.17c-3.12,4-4.7,9.39-4.77,16s1.43,11.83,4.48,15.55,7.17,5.36,12.36,5a14.19,14.19,0,0,0,9.15-3.8,17.12,17.12,0,0,0,4.79-8.77q-9.07.44-18.14,1l.12-13.82q17.48-.72,35-1.22l-.09,13.32c-1.21,6.61-4.46,12.87-9.77,18.92a33.34,33.34,0,0,1-9.37,7.4,30,30,0,0,1-11.81,3.6C204.27,183.43,196.5,180.64,190.19,173.85Z"/><path class="cls-1" d="M295.2,107.67h15.63q0,34.77-.09,69.53-7.87.08-15.73.26,0-14.46.08-28.93-12.43.17-24.86.48l-.15,29.26q-7.86.34-15.72.77l.44-71.35h15.62l-.14,28.26q12.41-.22,24.83-.33Z"/><path class="cls-1" d="M320.14,120.53q0-6.43,0-12.86h50.62l.06,13-17.57-.11q.08,28.44.16,56.89-7.86-.19-15.73-.28,0-28.33-.08-56.67Z"/><path class="cls-1" d="M408,180l-.53-72.27,15.62,0,.6,73.42Q415.88,180.51,408,180Z"/><path class="cls-1" d="M459.4,107.77c10.23,0,18.67,3.6,25.32,11.12s10,17.44,10.14,29.43-3.08,21.47-9.59,28.15-14.89,9.24-25.15,8.12q-11.31-1.24-22.64-2.27l-.66-74.58Zm-6.37,62,7,.61c6,.54,10.66-1.21,14-5.37s5-10.08,4.95-17.67-1.84-13.72-5.29-18.3a17.2,17.2,0,0,0-14.14-7l-6.95-.15Z"/><path class="cls-1" d="M543.18,107.69l.12,16.42q-11.59-.4-23.19-.76l.16,18.25q10.22.66,20.44,1.39l.12,16.33q-10.21-1.06-20.42-2,.08,9.85.17,19.7,11.58,1.51,23.14,3.19l.12,16.42q-19.32-3.45-38.71-6.28l-.76-82.72Z"/><path class="cls-1" d="M597.56,207.42q-1.78-8.74-3.57-17.35-11.41-2.1-22.84-4-1.73,7.59-3.46,15.06-8.25-1.64-16.52-3.16c7.19-28.72,14.4-58.72,21.68-90.2l19,0q11.24,49.24,22.2,103.44Q605.83,209.27,597.56,207.42ZM575,169.2q7.54,1,15.07,2.07-3.82-17.93-7.67-35.28Q578.67,152.86,575,169.2Z"/><path class="cls-1" d="M282.35,223.68c4.26-.71,8.85-1.42,12.24-1,1.82.16,2.13-.79,1.74-1.74-1.19-3.32-4.5-4.27-8.14-4.27-4.58,0-17.22,2.13-24.09,2.13-1.11,0-1.74.47-1.5,1.5.87,3.08,4.27,4.9,9.4,4.9a25.81,25.81,0,0,0,3.4-.32c-7,10.74-14.93,26.78-16.9,33.33a11.36,11.36,0,0,0-.47,3.16,5.34,5.34,0,0,0,1.66,4.34c1.11,1.11,2.05,1,2.69-.4,4.58-10.35,10.27-20.85,14.38-28.28C280.14,231.11,282.43,226.53,282.35,223.68Z"/><path class="cls-1" d="M317.9,235.37c2,0,3.16-1.82,3.16-3.95,0-2.29-2.13-5.13-4.34-5.13-1.82,0-3.48,2.05-3.48,4.26A4.92,4.92,0,0,0,317.9,235.37Z"/><path class="cls-1" d="M344.75,234.9c-.24-1.9-1.18-2.21-2.92-.55-4.66,4.82-13.27,16.11-19,24.88.71-4.19,1.5-7.35,3.48-15.17a17.6,17.6,0,0,0,.55-4.27,7.33,7.33,0,0,0-2.69-5.84c-1.26-1-2.37-.63-2.84.79A121.56,121.56,0,0,0,317,253c-2.46,5.3-6.5,10.45-9.61,10.45-.87,0-1.19-.71-1.19-2a13.87,13.87,0,0,1,1.11-4.74c1.34-3.16,5-9.08,6.48-12.48,2.05-3.95,1.42-7.35-.08-8.93-1-1.18-2-1-3.16.55a101,101,0,0,0-9.9,18.65c-2.41,5.19-5.44,9.32-8,9.32-1.11,0-1.74-1.26-1.74-3.32,0-4.66,4.5-10.9,8.77-15.8a4.89,4.89,0,0,0,1.26-3.08,7.94,7.94,0,0,0-2.29-5.06c-1-1-1.82-.87-3.16.08a19.1,19.1,0,0,1-6.4,3.32,22.16,22.16,0,0,0,1.42-6.32c0-1.82-.71-2.76-2.37-2.76-2.45,0-7.5,5.61-7.5,9.64a4.09,4.09,0,0,0,1.5,2.92,108.92,108.92,0,0,0-9.72,14.38,12.14,12.14,0,0,0-1.66,5.69,6.27,6.27,0,0,0,2,4.66c1.42,1.5,2.45.79,2.76-.63,1.11-5.45,5.61-12.72,11.53-23a16.58,16.58,0,0,0,5.77-1.26c-3.95,4.82-8.14,10.9-8.14,16,0,4.26,2.61,7.66,7.43,7.66a12,12,0,0,0,8.22-3.73c1,2.1,3,3.41,6.31,3.41a14.37,14.37,0,0,0,9.76-4.46c.43,2.35,1.79,3.65,4.22,4.78a1.94,1.94,0,0,0,2.61-.95c5.69-9,11.06-15.32,18.25-23.93C344.12,238.77,345,236.64,344.75,234.9Z"/><path class="cls-1" d="M355.34,235.37c2,0,3.16-1.82,3.16-3.95,0-2.29-2.13-5.13-4.34-5.13-1.82,0-3.48,2.05-3.48,4.26A4.92,4.92,0,0,0,355.34,235.37Z"/><path class="cls-1" d="M388.75,253.15c-.79-1.66-1.5-1.58-2.37,0-2.61,5.13-6.56,10.51-9.4,10.51-.79,0-1.11-.71-1.11-1.9,0-5.29,6.64-13.9,8.69-18.25,2.05-4.11,1.34-7.58,0-9.16-.95-1.11-2.29-1-3.24.55l-1.5,2.45a5.15,5.15,0,0,0-5.29-3.48c-4,0-10.51,3.71-16.82,12.8a24.2,24.2,0,0,0-3.26,6.3c-2.46,5.3-6.5,10.45-9.61,10.45-.87,0-1.18-.71-1.18-2a13.89,13.89,0,0,1,1.11-4.74c1.34-3.16,5-9.08,6.48-12.48,2.05-3.95,1.42-7.35-.08-8.93-1-1.18-2-1-3.16.55a100.58,100.58,0,0,0-10,18.8,17.85,17.85,0,0,0-.95,5.21c0,3.95,2.13,6.71,7,6.71a14.42,14.42,0,0,0,10-4.66,6.6,6.6,0,0,0,6.63,4.59c3.16,0,6.71-2.45,9-4.66.63,2.92,2.92,5,6.87,5,4.82,0,9.87-4.19,11.93-8.53A6.55,6.55,0,0,0,388.75,253.15ZM361.66,263c-.79,0-1.11-.95-1.11-2.37,0-2.53,1.34-6.71,3.71-10.43,4-6.48,9.48-11.45,11.06-11.45.79,0,.95.55.95,1.5,0,2.05-1.42,5.92-4.5,11.3C367.9,258.2,364.27,263,361.66,263Z"/><path class="cls-1" d="M243.24,38.08h11.93a10.21,10.21,0,0,1,6.67,2,6.39,6.39,0,0,1,2.48,5.16q0,4.65-5.44,6.3a6.85,6.85,0,0,1,4.42,2.31,6.69,6.69,0,0,1,1.64,4.5,6.35,6.35,0,0,1-2.41,5.22,10.43,10.43,0,0,1-6.71,1.94H243.24Zm6.69,5.08v5.95h4.38a3.49,3.49,0,0,0,2.33-.74,2.73,2.73,0,0,0,.88-2.21,2.79,2.79,0,0,0-.88-2.23,3.43,3.43,0,0,0-2.33-.76Zm0,17.29h5a3.24,3.24,0,0,0,2.27-.82,2.92,2.92,0,0,0,.9-2.27,3.12,3.12,0,0,0-.86-2.31,3,3,0,0,0-2.23-.86h-5.12Z"/><path class="cls-1" d="M276.29,54.86V65.54H269.6V38.08h10.83q4.77,0,7.43,2.46a7.81,7.81,0,0,1,2.66,5.94,8.55,8.55,0,0,1-1.45,4.65,7.9,7.9,0,0,1-4.73,3.21l6.73,11.19h-7.82l-6.18-10.68Zm0-11.69v6.61h4.15a3.06,3.06,0,0,0,3.29-3.27,3.33,3.33,0,0,0-.9-2.41,3.15,3.15,0,0,0-2.39-.94Z"/><path class="cls-1" d="M309.57,65.54h-6.69V56.7l-9.5-18.62H301l5.28,12.4,5.24-12.4h7.59l-9.5,18.62Z"/><path class="cls-1" d="M325.08,61.8A13.44,13.44,0,0,1,321,51.73a13.44,13.44,0,0,1,4.09-10.07,13.8,13.8,0,0,1,10-4,14.11,14.11,0,0,1,8.13,2.42,12.65,12.65,0,0,1,5,6.73h-8a5.25,5.25,0,0,0-5-3A7,7,0,0,0,329.78,46a8.16,8.16,0,0,0-2,5.75,8.16,8.16,0,0,0,2,5.75,7,7,0,0,0,5.42,2.15,5.25,5.25,0,0,0,5-3h8a12.64,12.64,0,0,1-5,6.73,14.1,14.1,0,0,1-8.13,2.43A13.8,13.8,0,0,1,325.08,61.8Z"/><path class="cls-1" d="M369.1,38v5.08h-9.93V49h8.76v5.08h-8.76v6.38h9.93v5.08H352.48V38Z"/><path class="cls-1" d="M373.48,32.68h5.12a15.24,15.24,0,0,1,.78,4.85A6,6,0,0,1,378,41.64a5.11,5.11,0,0,1-4.09,1.6V40.7q2,0,2-2.58v-.63h-2.46Z"/><path class="cls-1" d="M393.19,43a3.11,3.11,0,0,0-2.05.67,2.35,2.35,0,0,0-.8,1.92,2.76,2.76,0,0,0,.74,2A4.85,4.85,0,0,0,393,48.74q1.19.41,2.66.78a30,30,0,0,1,2.91.9,12.78,12.78,0,0,1,2.64,1.31,5.75,5.75,0,0,1,1.94,2.21,7.34,7.34,0,0,1,.74,3.42,7.66,7.66,0,0,1-2.84,6,10.92,10.92,0,0,1-7.47,2.48,11.74,11.74,0,0,1-7.47-2.23,7.59,7.59,0,0,1-2.84-6.34h7.12q.27,3.29,3.36,3.29a3.21,3.21,0,0,0,2.27-.76,2.53,2.53,0,0,0,.82-1.94,2.6,2.6,0,0,0-.74-1.92,5.19,5.19,0,0,0-1.94-1.17q-1.19-.43-2.66-.8a26.77,26.77,0,0,1-2.91-.92A14.22,14.22,0,0,1,386,51.71,5.58,5.58,0,0,1,384,49.52a7.23,7.23,0,0,1-.74-3.38A7.5,7.5,0,0,1,386.15,40a11.24,11.24,0,0,1,7.29-2.31,11.82,11.82,0,0,1,7.18,2q2.74,2,2.86,6.36H396.2a3.67,3.67,0,0,0-1-2.29A2.78,2.78,0,0,0,393.19,43Z"/></svg>